<?xml version="1.0" encoding="UTF-8"?><svg xmlns="http://www.w3.org/2000/svg" viewBox="0 0 171.01 117.34"><defs><style>.cls-1{fill:#b2c2e5;}.cls-1,.cls-2{stroke:#000;stroke-miterlimit:10;stroke-width:.75px;}.cls-2{fill:#e6f0fa;}</style></defs><g id="Laag_3"><path class="cls-1" d="M53.62,74.57c-2.47.56-4.9-.3-6.07-2.11-.93-1.44-.77-3-.69-3.54.03-18.73-.01-26.28-.1-27.95,0-.11-.04-.82,0-1.76.09-1.97.15-2.95.64-3.9.51-.98,1.25-1.52,1.63-1.8,2.09-1.52,4.1-.85,9.71-1,.58-.02,3.79-.11,7.91-.05,1.16.02,2.09.07,3.11.6,2.56,1.34,2.89,4.21,2.92,4.49,6.09.09,10.87.08,13.87.06,7.69-.05,11.89-.22,13.58,2.39.74,1.14.77,2.44.68,3.35-15.73,10.41-31.47,20.82-47.2,31.23Z"/></g><g id="Laag_2"><rect class="cls-1" x="53.62" y="43.48" width="55.43" height="34.54" rx=".3" ry=".3"/></g><g id="Laag_4"><path class="cls-2" d="M85.41,70.84c-4,.07-8.01-.06-12.02,0-1.3.02-2.64.06-3.94-.79-1.27-.83-2.44-2.45-2.41-4.44.04-2.13,1.46-4.18,3.55-4.86,1.93-.63,3.62.17,3.99.37-.07-.73-.1-2.14.71-3.48,1.77-2.95,5.86-2.74,6.43-2.71.72.04,4.33.23,5.77,2.98.62,1.18.6,2.37.52,3.06.19-.14.48-.31.85-.45,1.11-.39,2.11-.07,2.55.07,1.47.47,3.36,1.98,3.65,4.28.36,2.87-2.04,4.76-2.32,4.98-1.44,1.1-2.62.91-7.34.99Z"/></g></svg>